<svg xmlns="http://www.w3.org/2000/svg" version="1.1" xmlns:xlink="http://www.w3.org/1999/xlink" xmlns:svgjs="http://svgjs.com/svgjs" width="256" height="256" x="0" y="0" viewBox="0 0 24 24" style="enable-background:new 0 0 512 512" xml:space="preserve"><g><path d="M12,24C5.383,24,0,18.617,0,12S5.383,0,12,0s12,5.383,12,12-5.383,12-12,12Zm0-22C6.486,2,2,6.486,2,12s4.486,10,10,10,10-4.486,10-10S17.514,2,12,2ZM7.636,13.971l-1.302,1c-.446,.446-.446,1.17,0,1.616l.522,.6c.551,.552,1.277,.813,2,.813,3.714,0,9.143-5.143,9.143-9.143,0-.723-.261-1.449-.813-2l-.6-.522c-.446-.446-1.17-.446-1.616,0l-1,1.302c-.446,.446-.446,1.17,0,1.616l.851,1.069c-.901,2.244-2.429,3.71-4.5,4.5l-1.069-.851c-.446-.446-1.17-.446-1.616,0Z" fill="#ffffff" data-original="#000000"></path></g></svg>